<svg width="174" height="30" viewBox="0 0 174 30" fill="none" xmlns="http://www.w3.org/2000/svg">
<rect width="174" height="30" fill="#2D2D2D"/>
<path d="M63.7676 12.6836H59.0059C57.8117 12.6836 57.2138 12.684 56.7236 12.9072C56.3601 13.0728 56.0418 13.3238 55.7959 13.6387C55.4645 14.0632 55.3255 14.6444 55.0469 15.8057L52.9424 24.5723H48.9727L51.5156 12.4355C51.7673 11.2344 51.8934 10.634 52.2236 10.1934C52.4686 9.86648 52.79 9.60435 53.1602 9.43164C53.6591 9.19889 54.2729 9.19922 55.5 9.19922H63.7676V12.6836Z" fill="white"/>
<path d="M44.2891 8.12012H63.7712V4.65903H45.1728L44.2891 8.12012Z" fill="white"/>
<path d="M76.5993 12.4847C76.4816 12.2787 76.3786 12.1536 76.2903 12.1094C76.2168 12.0653 76.077 12.0432 75.871 12.0432H71.7434L72.5601 10.454C72.6778 10.2627 72.7735 10.145 72.8471 10.1009C72.9206 10.042 73.0678 10.0126 73.2885 10.0126H75.275L73.5092 6.67964L69.9776 13.5H66.9317C67.7557 11.9697 68.4988 10.5938 69.161 9.37247C69.4406 8.85745 69.7128 8.34979 69.9776 7.84948C70.2572 7.34917 70.5 6.90037 70.706 6.50307C70.9268 6.09105 71.1033 5.75996 71.2358 5.50981C71.3829 5.24494 71.4712 5.09779 71.5006 5.06836C71.6184 4.86235 71.714 4.73728 71.7876 4.69313C71.8612 4.64899 72.0083 4.62692 72.229 4.62692H75.275L80.153 13.5H77.1291L76.5993 12.4847ZM89.7796 13.5H81.0611L81.8998 11.9108C82.0175 11.7048 82.1132 11.5797 82.1868 11.5356C82.2603 11.4914 82.4075 11.4693 82.6282 11.4693H89.272C89.478 11.4693 89.6472 11.4031 89.7796 11.2707C89.9268 11.1235 90.0004 10.947 90.0004 10.741C90.0004 10.5349 89.9268 10.3657 89.7796 10.2333C89.6472 10.0861 89.478 10.0126 89.272 10.0126H89.2499H83.9746C83.5332 10.0126 83.1212 9.95371 82.7386 9.83599C82.356 9.71827 82.0175 9.54169 81.7232 9.30625C81.4437 9.07082 81.2229 8.79123 81.0611 8.4675C80.8992 8.12906 80.8183 7.74647 80.8183 7.31974C80.8183 6.89301 80.8992 6.51778 81.0611 6.19405C81.2229 5.85561 81.4437 5.56867 81.7232 5.33323C82.0175 5.09779 82.356 4.92121 82.7386 4.8035C83.1212 4.68578 83.5332 4.62692 83.9746 4.62692H91.2364L90.4197 6.21613C90.302 6.40742 90.2064 6.52514 90.1328 6.56928C90.0592 6.61343 89.9121 6.6355 89.6914 6.6355H84.0408C83.8495 6.6355 83.6877 6.70172 83.5552 6.83415C83.4228 6.96659 83.3566 7.12845 83.3566 7.31974C83.3566 7.51104 83.4228 7.6729 83.5552 7.80533C83.6877 7.93777 83.8495 8.00399 84.0408 8.00399H89.8017C90.1696 8.00399 90.5227 8.0702 90.8612 8.20264C91.1996 8.33507 91.4866 8.52636 91.722 8.77652C91.9722 9.01196 92.1708 9.2989 92.318 9.63734C92.4651 9.96107 92.5387 10.3289 92.5387 10.741C92.5387 11.153 92.4651 11.5282 92.318 11.8666C92.1708 12.2051 91.9722 12.4994 91.722 12.7495C91.4866 12.985 91.1996 13.1689 90.8612 13.3013C90.5227 13.4338 90.1696 13.5 89.8017 13.5H89.7796ZM102.389 13.5H93.6708L94.5095 11.9108C94.6272 11.7048 94.7229 11.5797 94.7964 11.5356C94.87 11.4914 95.0172 11.4693 95.2379 11.4693H101.882C102.088 11.4693 102.257 11.4031 102.389 11.2707C102.536 11.1235 102.61 10.947 102.61 10.741C102.61 10.5349 102.536 10.3657 102.389 10.2333C102.257 10.0861 102.088 10.0126 101.882 10.0126H101.86H96.5843C96.1429 10.0126 95.7308 9.95371 95.3483 9.83599C94.9657 9.71827 94.6272 9.54169 94.3329 9.30625C94.0533 9.07082 93.8326 8.79123 93.6708 8.4675C93.5089 8.12906 93.428 7.74647 93.428 7.31974C93.428 6.89301 93.5089 6.51778 93.6708 6.19405C93.8326 5.85561 94.0533 5.56867 94.3329 5.33323C94.6272 5.09779 94.9657 4.92121 95.3483 4.8035C95.7308 4.68578 96.1429 4.62692 96.5843 4.62692H103.846L103.029 6.21613C102.912 6.40742 102.816 6.52514 102.742 6.56928C102.669 6.61343 102.522 6.6355 102.301 6.6355H96.6505C96.4592 6.6355 96.2974 6.70172 96.1649 6.83415C96.0325 6.96659 95.9663 7.12845 95.9663 7.31974C95.9663 7.51104 96.0325 7.6729 96.1649 7.80533C96.2974 7.93777 96.4592 8.00399 96.6505 8.00399H102.411C102.779 8.00399 103.132 8.0702 103.471 8.20264C103.809 8.33507 104.096 8.52636 104.332 8.77652C104.582 9.01196 104.781 9.2989 104.928 9.63734C105.075 9.96107 105.148 10.3289 105.148 10.741C105.148 11.153 105.075 11.5282 104.928 11.8666C104.781 12.2051 104.582 12.4994 104.332 12.7495C104.096 12.985 103.809 13.1689 103.471 13.3013C103.132 13.4338 102.779 13.5 102.411 13.5H102.389ZM117.14 11.4914L116.323 13.0806C116.206 13.2719 116.103 13.3896 116.014 13.4338C115.941 13.4779 115.801 13.5 115.595 13.5H109.746L110.562 11.9108C110.665 11.7195 110.754 11.6018 110.827 11.5576C110.916 11.5135 111.063 11.4914 111.269 11.4914H117.14ZM109.768 10.0126C109.606 10.0126 109.466 10.0714 109.349 10.1891C109.245 10.2922 109.194 10.4246 109.194 10.5865V11.4914V13.5H108.179H106.479V4.62692H117.074L116.257 6.19405C116.139 6.38535 116.044 6.50307 115.97 6.54721C115.897 6.59136 115.749 6.61343 115.529 6.61343H109.768C109.606 6.61343 109.466 6.67229 109.349 6.79001C109.245 6.89301 109.194 7.02544 109.194 7.18731V8.11435H115.507L114.734 9.59319C114.616 9.78449 114.521 9.90221 114.447 9.94635C114.374 9.9905 114.226 10.0126 114.006 10.0126H109.768ZM124.715 13.5H122V6.61343H117.365L118.182 5.04629C118.285 4.855 118.373 4.73728 118.447 4.69313C118.535 4.64899 118.682 4.62692 118.888 4.62692H129.373L128.556 6.19405C128.438 6.38535 128.343 6.50307 128.269 6.54721C128.195 6.59136 128.048 6.61343 127.828 6.61343H125.289C125.127 6.61343 124.988 6.67229 124.87 6.79001C124.767 6.89301 124.715 7.02544 124.715 7.18731V13.5ZM74.061 24.5H71.3461V17.6134H66.7109L67.5276 16.0463C67.6306 15.855 67.7189 15.7373 67.7925 15.6931C67.8808 15.649 68.0279 15.6269 68.2339 15.6269H78.7183L77.9016 17.1941C77.7839 17.3853 77.6883 17.5031 77.6147 17.5472C77.5411 17.5914 77.394 17.6134 77.1732 17.6134H74.6349C74.473 17.6134 74.3333 17.6723 74.2155 17.79C74.1125 17.893 74.061 18.0254 74.061 18.1873V24.5ZM79.6 24.5V15.6269H87.8109C88.2523 15.6269 88.6644 15.7152 89.0469 15.8918C89.4442 16.0536 89.7827 16.2817 90.0623 16.576C90.3566 16.8556 90.5847 17.1867 90.7465 17.5693C90.9231 17.9519 91.0114 18.3639 91.0114 18.8053C91.0114 19.4822 90.8201 20.0855 90.4375 20.6153C90.0696 21.145 89.5988 21.5276 89.0249 21.763L92.2474 24.5H88.8483L85.9789 22.0058H83.1316L83.9482 20.4166C84.066 20.2253 84.1616 20.1076 84.2352 20.0635C84.3087 20.0046 84.4559 19.9752 84.6766 19.9752H87.1487C87.4872 19.9752 87.7667 19.8648 87.9875 19.6441C88.2082 19.4086 88.3186 19.1291 88.3186 18.8053C88.3186 18.4816 88.2082 18.2094 87.9875 17.9887C87.7667 17.7532 87.4872 17.6355 87.1487 17.6355H82.8888C82.7269 17.6355 82.5871 17.6944 82.4694 17.8121C82.3664 17.9151 82.3149 18.0475 82.3149 18.2094V24.5H79.6ZM102.358 23.4847C102.24 23.2787 102.137 23.1536 102.049 23.1094C101.975 23.0653 101.835 23.0432 101.629 23.0432H97.5017L98.3184 21.454C98.4361 21.2627 98.5317 21.145 98.6053 21.1009C98.6789 21.042 98.826 21.0126 99.0468 21.0126H101.033L99.2675 17.6796L95.7359 24.5H92.6899C93.514 22.9697 94.2571 21.5938 94.9192 20.3725C95.1988 19.8574 95.471 19.3498 95.7359 18.8495C96.0155 18.3492 96.2583 17.9004 96.4643 17.5031C96.685 17.091 96.8616 16.76 96.994 16.5098C97.1412 16.2449 97.2295 16.0978 97.2589 16.0684C97.3766 15.8624 97.4723 15.7373 97.5458 15.6931C97.6194 15.649 97.7666 15.6269 97.9873 15.6269H101.033L105.911 24.5H102.887L102.358 23.4847ZM110.853 24.5C110 24.5 109.256 24.397 108.624 24.191C108.006 23.9703 107.491 23.6686 107.079 23.286C106.681 22.9034 106.38 22.4399 106.174 21.8955C105.982 21.3363 105.887 20.7256 105.887 20.0635C105.887 19.4013 105.982 18.798 106.174 18.2535C106.38 17.6944 106.681 17.2235 107.079 16.8409C107.491 16.4583 108.006 16.164 108.624 15.958C109.256 15.7373 110 15.6269 110.853 15.6269H117.033L116.217 17.1941C116.099 17.3853 116.003 17.5031 115.93 17.5472C115.856 17.5914 115.709 17.6134 115.488 17.6134H111.118C110.794 17.6134 110.485 17.6502 110.191 17.7238C109.897 17.7826 109.632 17.9004 109.396 18.0769C109.176 18.2535 108.999 18.5037 108.867 18.8274C108.734 19.1511 108.668 19.5632 108.668 20.0635C108.668 20.5785 108.734 20.9979 108.867 21.3216C108.999 21.6306 109.176 21.8734 109.396 22.05C109.632 22.2265 109.897 22.3443 110.191 22.4031C110.485 22.462 110.794 22.4914 111.118 22.4914H117.254L116.437 24.0806C116.32 24.2719 116.224 24.3896 116.15 24.4338C116.077 24.4779 115.93 24.5 115.709 24.5H110.853ZM129.453 24.5H125.833L121.286 20.5711V24.5H118.571V15.6269H121.286V19.5779L125.414 15.6269H128.879L124.09 19.9531L129.453 24.5Z" fill="white"/>
</svg>
