<svg width="320" height="72" viewBox="0 0 320 72" fill="none" xmlns="http://www.w3.org/2000/svg">
<path d="M90.9316 31.0864H76.8633C73.3354 31.0864 71.5712 31.0862 70.123 31.7456C69.0485 32.2349 68.1084 32.977 67.3818 33.9077C66.4027 35.162 65.9902 36.8775 65.167 40.3081L58.9521 66.2085H47.2227L54.7354 30.353C55.479 26.804 55.8516 25.0289 56.8271 23.7271C57.5508 22.7615 58.5013 21.9892 59.5947 21.479C61.0689 20.7912 62.882 20.7915 66.5078 20.7915H90.9316V31.0864Z" fill="#0018F1"/>
<path d="M33.375 17.604H90.9313V7.37888H35.9859L33.375 17.604Z" fill="#0018F1"/>
<path d="M128.838 31.0004C128.491 30.3918 128.186 30.0223 127.926 29.8919C127.708 29.7614 127.295 29.6962 126.687 29.6962H114.493L116.905 25.0012C117.253 24.4361 117.536 24.0883 117.753 23.9579C117.97 23.784 118.405 23.697 119.057 23.697H124.926L119.709 13.8505L109.276 34H100.277C102.712 29.4789 104.907 25.4142 106.863 21.806C107.689 20.2845 108.493 18.7847 109.276 17.3066C110.102 15.8285 110.819 14.5026 111.428 13.3289C112.08 12.1116 112.602 11.1335 112.993 10.3945C113.427 9.61198 113.688 9.17725 113.775 9.09031C114.123 8.48169 114.406 8.11218 114.623 7.98176C114.84 7.85134 115.275 7.78613 115.927 7.78613H124.926L139.337 34H130.403L128.838 31.0004ZM167.777 34H142.02L144.498 29.305C144.845 28.6964 145.128 28.3269 145.345 28.1964C145.563 28.066 145.997 28.0008 146.65 28.0008H166.277C166.886 28.0008 167.386 27.8052 167.777 27.4139C168.212 26.9792 168.429 26.4575 168.429 25.8489C168.429 25.2403 168.212 24.7404 167.777 24.3491C167.386 23.9144 166.886 23.697 166.277 23.697H166.212H150.627C149.323 23.697 148.106 23.5231 146.976 23.1754C145.845 22.8276 144.845 22.3059 143.976 21.6104C143.15 20.9148 142.498 20.0888 142.02 19.1324C141.542 18.1326 141.302 17.0023 141.302 15.7416C141.302 14.4809 141.542 13.3723 142.02 12.4159C142.498 11.4161 143.15 10.5684 143.976 9.87281C144.845 9.17725 145.845 8.65558 146.976 8.3078C148.106 7.96002 149.323 7.78613 150.627 7.78613H172.081L169.668 12.4812C169.32 13.0463 169.038 13.3941 168.821 13.5245C168.603 13.6549 168.168 13.7201 167.516 13.7201H150.823C150.258 13.7201 149.78 13.9157 149.388 14.307C148.997 14.6982 148.801 15.1764 148.801 15.7416C148.801 16.3067 148.997 16.7849 149.388 17.1762C149.78 17.5674 150.258 17.7631 150.823 17.7631H167.842C168.929 17.7631 169.973 17.9587 170.972 18.3499C171.972 18.7412 172.82 19.3063 173.516 20.0454C174.255 20.7409 174.841 21.5886 175.276 22.5885C175.711 23.5449 175.928 24.6317 175.928 25.8489C175.928 27.0662 175.711 28.1747 175.276 29.1746C174.841 30.1744 174.255 31.0439 173.516 31.7829C172.82 32.4785 171.972 33.0219 170.972 33.4131C169.973 33.8044 168.929 34 167.842 34H167.777ZM205.03 34H179.273L181.751 29.305C182.098 28.6964 182.381 28.3269 182.598 28.1964C182.816 28.066 183.25 28.0008 183.903 28.0008H203.53C204.139 28.0008 204.639 27.8052 205.03 27.4139C205.465 26.9792 205.682 26.4575 205.682 25.8489C205.682 25.2403 205.465 24.7404 205.03 24.3491C204.639 23.9144 204.139 23.697 203.53 23.697H203.465H187.88C186.576 23.697 185.359 23.5231 184.229 23.1754C183.098 22.8276 182.098 22.3059 181.229 21.6104C180.403 20.9148 179.751 20.0888 179.273 19.1324C178.795 18.1326 178.555 17.0023 178.555 15.7416C178.555 14.4809 178.795 13.3723 179.273 12.4159C179.751 11.4161 180.403 10.5684 181.229 9.87281C182.098 9.17725 183.098 8.65558 184.229 8.3078C185.359 7.96002 186.576 7.78613 187.88 7.78613H209.334L206.921 12.4812C206.573 13.0463 206.291 13.3941 206.073 13.5245C205.856 13.6549 205.421 13.7201 204.769 13.7201H188.076C187.511 13.7201 187.033 13.9157 186.641 14.307C186.25 14.6982 186.054 15.1764 186.054 15.7416C186.054 16.3067 186.25 16.7849 186.641 17.1762C187.033 17.5674 187.511 17.7631 188.076 17.7631H205.095C206.182 17.7631 207.226 17.9587 208.225 18.3499C209.225 18.7412 210.073 19.3063 210.769 20.0454C211.508 20.7409 212.094 21.5886 212.529 22.5885C212.964 23.5449 213.181 24.6317 213.181 25.8489C213.181 27.0662 212.964 28.1747 212.529 29.1746C212.094 30.1744 211.508 31.0439 210.769 31.7829C210.073 32.4785 209.225 33.0219 208.225 33.4131C207.226 33.8044 206.182 34 205.095 34H205.03ZM248.608 28.066L246.196 32.761C245.848 33.3262 245.544 33.674 245.283 33.8044C245.065 33.9348 244.652 34 244.044 34H226.763L229.176 29.305C229.48 28.7398 229.741 28.3921 229.959 28.2616C230.22 28.1312 230.654 28.066 231.263 28.066H248.608ZM226.829 23.697C226.35 23.697 225.937 23.8709 225.59 24.2187C225.285 24.523 225.133 24.9143 225.133 25.3925V28.066V34H222.134H217.113V7.78613H248.413L246 12.4159C245.652 12.9811 245.37 13.3289 245.152 13.4593C244.935 13.5897 244.5 13.6549 243.848 13.6549H226.829C226.35 13.6549 225.937 13.8288 225.59 14.1766C225.285 14.4809 225.133 14.8721 225.133 15.3503V18.0891H243.783L241.501 22.4581C241.153 23.0232 240.87 23.371 240.653 23.5014C240.436 23.6318 240.001 23.697 239.349 23.697H226.829ZM270.988 34H262.967V13.6549H249.274L251.686 9.0251C251.991 8.45996 252.252 8.11218 252.469 7.98176C252.73 7.85134 253.164 7.78613 253.773 7.78613H284.747L282.334 12.4159C281.987 12.9811 281.704 13.3289 281.487 13.4593C281.269 13.5897 280.835 13.6549 280.183 13.6549H272.684C272.205 13.6549 271.792 13.8288 271.445 14.1766C271.14 14.4809 270.988 14.8721 270.988 15.3503V34ZM121.339 66H113.319V45.6549H99.625L102.038 41.0251C102.342 40.46 102.603 40.1122 102.82 39.9818C103.081 39.8513 103.516 39.7861 104.124 39.7861H135.098L132.686 44.4159C132.338 44.9811 132.055 45.3289 131.838 45.4593C131.621 45.5897 131.186 45.6549 130.534 45.6549H123.035C122.557 45.6549 122.144 45.8288 121.796 46.1766C121.492 46.4809 121.339 46.8721 121.339 47.3503V66ZM137.703 66V39.7861H161.961C163.265 39.7861 164.482 40.047 165.613 40.5686C166.786 41.0468 167.786 41.7207 168.612 42.5901C169.482 43.4161 170.155 44.3942 170.634 45.5245C171.155 46.6548 171.416 47.872 171.416 49.1762C171.416 51.1759 170.851 52.9583 169.721 54.5233C168.634 56.0883 167.243 57.2186 165.547 57.9141L175.068 66H165.026L156.549 58.6314H148.137L150.549 53.9364C150.897 53.3713 151.18 53.0235 151.397 52.8931C151.614 52.7192 152.049 52.6322 152.701 52.6322H160.005C161.004 52.6322 161.83 52.3062 162.483 51.6541C163.135 50.9585 163.461 50.1326 163.461 49.1762C163.461 48.2198 163.135 47.4155 162.483 46.7635C161.83 46.0679 161.004 45.7201 160.005 45.7201H147.419C146.941 45.7201 146.528 45.894 146.18 46.2418C145.876 46.5461 145.724 46.9373 145.724 47.4155V66H137.703ZM204.936 63.0004C204.589 62.3918 204.284 62.0223 204.023 61.8919C203.806 61.7614 203.393 61.6962 202.785 61.6962H190.591L193.003 57.0012C193.351 56.4361 193.634 56.0883 193.851 55.9579C194.068 55.784 194.503 55.697 195.155 55.697H201.024L195.807 45.8505L185.374 66H176.375C178.809 61.4789 181.005 57.4142 182.961 53.806C183.787 52.2845 184.591 50.7847 185.374 49.3066C186.2 47.8285 186.917 46.5026 187.526 45.3289C188.178 44.1116 188.699 43.1335 189.091 42.3945C189.525 41.612 189.786 41.1773 189.873 41.0903C190.221 40.4817 190.504 40.1122 190.721 39.9818C190.938 39.8513 191.373 39.7861 192.025 39.7861H201.024L215.435 66H206.501L204.936 63.0004ZM230.035 66C227.513 66 225.318 65.6957 223.449 65.0871C221.623 64.435 220.101 63.5438 218.884 62.4135C217.71 61.2832 216.819 59.9139 216.21 58.3054C215.645 56.6534 215.363 54.8493 215.363 52.8931C215.363 50.9368 215.645 49.1544 216.21 47.546C216.819 45.894 217.71 44.5029 218.884 43.3726C220.101 42.2423 221.623 41.3729 223.449 40.7643C225.318 40.1122 227.513 39.7861 230.035 39.7861H248.293L245.88 44.4159C245.533 44.9811 245.25 45.3289 245.033 45.4593C244.815 45.5897 244.38 45.6549 243.728 45.6549H230.817C229.861 45.6549 228.948 45.7636 228.078 45.981C227.209 46.1548 226.426 46.5026 225.731 47.0243C225.079 47.546 224.557 48.285 224.166 49.2414C223.775 50.1978 223.579 51.415 223.579 52.8931C223.579 54.4146 223.775 55.6536 224.166 56.61C224.557 57.5229 225.079 58.2402 225.731 58.7618C226.426 59.2835 227.209 59.6313 228.078 59.8052C228.948 59.9791 229.861 60.066 230.817 60.066H248.945L246.532 64.761C246.185 65.3262 245.902 65.674 245.685 65.8044C245.467 65.9348 245.033 66 244.38 66H230.035ZM284.985 66H274.291L260.858 54.3929V66H252.837V39.7861H260.858V51.4585L273.052 39.7861H283.29L269.139 52.567L284.985 66Z" fill="#0018F1"/>
</svg>
